{"title":"Stolichani v poveche - Season 5 - Episode 2","uid":8255064,"size":922047142,"categoryP":"video","categoryS":"tv_shows","magnet":"?xt=urn:btih:0087cf3b72fa6fbf41a22e145f3d01abf3421a59&amp;dn=Stolichani+v+poveche+-+Season+5+-+Episode+2&amp;tr=udp%3A%2F%2Ftracker.openbittorrent.com%3A80&amp;tr=udp%3A%2F%2Fopen.demonii.com%3A1337&amp;tr=udp%3A%2F%2Ftracker.coppersurfer.tk%3A6969&amp;tr=udp%3A%2F%2Fexodus.desync.com%3A6969","seeders":3,"leechers":0,"uploader":"freeplay666","files":1,"time":1363248016,"description":"  Stolichani v poveche.S05E02.WEB.Rip.MP4.MC.FREEPLAY.mp4\n  \n General\n     \n Complete name : Stolichani v poveche.S05E02.WEB.Rip.MP4.MC.FREEPLAY.mp4\n      Format : MPEG-4\n      Format profile : Base Media / Version 2\n      Codec ID : mp42\n      File size : 879 MiB\n      Duration : 46mn 43s\n      Overall bit rate : 2 631 Kbps\n      Encoded date : UTC 2013-03-14 06:30:50\n      Tagged date : UTC 2013-03-14 06:30:50\n   Video #1\n      ID : 1\n      Format : MPEG-4 Visual\n      Format profile : AdvancedSimple@L5\n      Format settings, BVOP : No\n      Format settings, QPel : No\n      Format settings, GMC : No warppoints\n      Format settings, Matrix : Default (H.263)\n      Codec ID : 20\n      Duration : 46mn 43s\n      Bit rate mode : Variable\n      Bit rate : 2 502 Kbps\n      Maximum bit rate : 25.8 Mbps\n      Width : 1 280 pixels\n      Height : 720 pixels\n      Display aspect ratio : 16:9\n      Frame rate mode : Constant\n      Frame rate : 30.000 fps\n      Resolution : 24 bits\n      Colorimetry : 4:2:0\n      Scan type : Progressive\n      Bits/(Pixel*Frame) : 0.090\n      Stream size : 836 MiB (95%)\n      Language : English\n      Encoded date : UTC 2013-03-14 06:30:50\n      Tagged date : UTC 2013-03-14 06:30:50\n   Audio #2\n      ID : 2\n      Format : AAC\n      Format/Info : Advanced Audio Codec\n      Format version : Version 4\n      Format profile : LC\n      Format settings, SBR : No\n      Codec ID : 40\n      Duration : 46mn 43s\n      Bit rate mode : Variable\n      Bit rate : 126 Kbps\n      Maximum bit rate : 337 Kbps\n      Channel(s) : 2 channels\n      Channel positions : L R\n      Sampling rate : 44.1 KHz\n      Resolution : 16 bits\n      Stream size : 42.0 MiB (5%)\n      Language : English\n      Encoded date : UTC 2013-03-14 06:30:50\n      Tagged date : UTC 2013-03-14 06:30:50","torrent":{"xt":"urn:btih:0087cf3b72fa6fbf41a22e145f3d01abf3421a59","amp;dn":"Stolichani+v+poveche+-+Season+5+-+Episode+2","amp;tr":["udp%3A%2F%2Ftracker.openbittorrent.com%3A80","udp%3A%2F%2Fopen.demonii.com%3A1337","udp%3A%2F%2Ftracker.coppersurfer.tk%3A6969","udp%3A%2F%2Fexodus.desync.com%3A6969"],"infoHash":"0087cf3b72fa6fbf41a22e145f3d01abf3421a59","infoHashBuffer":{"type":"Buffer","data":[0,135,207,59,114,250,111,191,65,162,46,20,95,61,1,171,243,66,26,89]},"announce":[],"urlList":[]}}